<svg xmlns="http://www.w3.org/2000/svg" width="33.56" height="23.492" viewBox="0 0 33.56 23.492">
  <path id="Icon_awesome-users" data-name="Icon awesome-users" d="M5.034,12.318A3.356,3.356,0,1,0,1.678,8.962,3.359,3.359,0,0,0,5.034,12.318Zm23.492,0A3.356,3.356,0,1,0,25.17,8.962,3.359,3.359,0,0,0,28.526,12.318ZM30.2,14H26.848a3.346,3.346,0,0,0-2.365.975,7.67,7.67,0,0,1,3.938,5.737h3.461A1.676,1.676,0,0,0,33.56,19.03V17.352A3.359,3.359,0,0,0,30.2,14ZM16.78,14a5.873,5.873,0,1,0-5.873-5.873A5.87,5.87,0,0,0,16.78,14Zm4.027,1.678h-.435a8.109,8.109,0,0,1-7.184,0h-.435a6.042,6.042,0,0,0-6.041,6.041v1.51a2.518,2.518,0,0,0,2.517,2.517h15.1a2.518,2.518,0,0,0,2.517-2.517v-1.51A6.042,6.042,0,0,0,20.807,15.674Zm-11.73-.7A3.346,3.346,0,0,0,6.712,14H3.356A3.359,3.359,0,0,0,0,17.352V19.03a1.676,1.676,0,0,0,1.678,1.678H5.134A7.69,7.69,0,0,1,9.077,14.971Z" transform="translate(0 -2.25)" fill="#666"/>
</svg>
