<svg xmlns="http://www.w3.org/2000/svg" width="22" height="22" viewBox="0 0 22 22">
  <g id="Icon_ionic-ios-chatbubbles" data-name="Icon ionic-ios-chatbubbles" transform="translate(-3.375 -3.375)">
    <path id="Path_219" data-name="Path 219" d="M24.82,17.791a1.281,1.281,0,0,1,.175-.645,1.781,1.781,0,0,1,.111-.164,8.569,8.569,0,0,0,1.46-4.775,9,9,0,0,0-9.186-8.832A9.123,9.123,0,0,0,8.373,10.4a8.5,8.5,0,0,0-.2,1.809,8.971,8.971,0,0,0,9.043,8.943,10.891,10.891,0,0,0,2.5-.407c.6-.164,1.19-.381,1.343-.439a1.4,1.4,0,0,1,.492-.09,1.375,1.375,0,0,1,.534.106l3,1.063a.715.715,0,0,0,.206.053.421.421,0,0,0,.423-.423.679.679,0,0,0-.026-.143Z" transform="translate(-1.19)" fill="#d6001c"/>
    <path id="Path_220" data-name="Path 220" d="M17.68,23.955c-.19.053-.434.111-.7.169a9.761,9.761,0,0,1-1.8.238A8.971,8.971,0,0,1,6.141,15.42a10,10,0,0,1,.079-1.132c.032-.227.069-.455.122-.677.053-.238.116-.476.185-.709l-.423.375A7.87,7.87,0,0,0,3.375,19.2a7.782,7.782,0,0,0,1.312,4.337c.122.185.19.328.169.423s-.629,3.279-.629,3.279a.424.424,0,0,0,.143.407.431.431,0,0,0,.27.1.379.379,0,0,0,.153-.032l2.967-1.169a.826.826,0,0,1,.635.011,8.9,8.9,0,0,0,3.21.635,8.306,8.306,0,0,0,6.351-2.914s.169-.233.365-.508C18.125,23.828,17.9,23.9,17.68,23.955Z" transform="translate(0 -2.361)" fill="#d6001c"/>
  </g>
</svg>
