<svg xmlns="http://www.w3.org/2000/svg" width="19.246" height="19.246" viewBox="0 0 19.246 19.246">
  <path id="Icon_awesome-check-square" data-name="Icon awesome-check-square" d="M17.184,21.5H2.062A2.062,2.062,0,0,1,0,19.434V4.312A2.062,2.062,0,0,1,2.062,2.25H17.184a2.062,2.062,0,0,1,2.062,2.062V19.434A2.062,2.062,0,0,1,17.184,21.5ZM8.391,17.283l7.9-7.9a.687.687,0,0,0,0-.972l-.972-.972a.687.687,0,0,0-.972,0L7.9,13.881l-3.01-3.01a.687.687,0,0,0-.972,0l-.972.972a.687.687,0,0,0,0,.972l4.468,4.468A.687.687,0,0,0,8.391,17.283Z" transform="translate(0 -2.25)" fill="#d6001c"/>
</svg>
