<svg xmlns="http://www.w3.org/2000/svg" width="21.545" height="20.131" viewBox="0 0 21.545 20.131">
  <path id="Icon_simple-hipchat" data-name="Icon simple-hipchat" d="M17.717,17.581s.092-.066.24-.178a8.778,8.778,0,0,0,3.588-6.929c0-5.13-4.823-9.293-10.77-9.293S0,5.343,0,10.474s4.822,9.3,10.771,9.3a12.354,12.354,0,0,0,2.266-.2l.235-.04a11.212,11.212,0,0,0,5.645,1.786.578.578,0,0,0,.5-.991,10.9,10.9,0,0,1-1.695-2.74ZM16.4,13.518a6.963,6.963,0,0,1-5.614,2.593h-.041a6.972,6.972,0,0,1-5.614-2.593A1.021,1.021,0,0,1,4.89,13a.44.44,0,0,1,.4-.472.048.048,0,0,1,.019,0,.564.564,0,0,1,.294.1,8.2,8.2,0,0,0,5.165,1.846,7.9,7.9,0,0,0,5.171-1.848.414.414,0,0,1,.281-.11.433.433,0,0,1,.434.426,1.186,1.186,0,0,1-.241.577H16.4Z" transform="translate(0 -1.181)" fill="#d6001c"/>
</svg>
